HIERARCHY
ROOT hip
{
  OFFSET 0 0 0
  CHANNELS 6 Xposition Yposition Zposition Zrotation Yrotation Xrotation
  JOINT abdomen
  {
    OFFSET 0 20.6881 -0.73152
    CHANNELS 3 Zrotation Xrotation Yrotation
    JOINT chest
    {
      OFFSET 0 11.7043 -0.48768
      CHANNELS 3 Zrotation Xrotation Yrotation
      JOINT neck
      {
        OFFSET 0 22.1894 -2.19456
        CHANNELS 3 Zrotation Xrotation Yrotation
        JOINT head
        {
          OFFSET -0.24384 7.07133 1.2192
          CHANNELS 3 Zrotation Xrotation Yrotation
          JOINT leftEye
          {
            OFFSET 4.14528 8.04674 8.04672
            CHANNELS 3 Zrotation Xrotation Yrotation
            End Site
            {
              OFFSET 1 0 0
            }
          }
          JOINT rightEye
          {
            OFFSET -3.6576 8.04674 8.04672
            CHANNELS 3 Zrotation Xrotation Yrotation
            End Site
            {
              OFFSET 1 0 0
            }
          }
        }
      }
      JOINT rCollar
      {
        OFFSET -2.68224 19.2634 -4.8768
        CHANNELS 3 Zrotation Xrotation Yrotation
        JOINT rShldr
        {
          OFFSET -8.77824 -1.95073 1.46304
          CHANNELS 3 Zrotation Xrotation Yrotation
          JOINT rForeArm
          {
            OFFSET -28.1742 -1.7115 0.48768
            CHANNELS 3 Zrotation Xrotation Yrotation
            JOINT rHand
            {
              OFFSET -22.5879 0.773209 7.07136
              CHANNELS 3 Zrotation Xrotation Yrotation
              JOINT rThumb1
              {
                OFFSET -1.2192 -0.487915 3.41376
                CHANNELS 3 Zrotation Xrotation Yrotation
                JOINT rThumb2
                {
                  OFFSET -3.37035 -0.52449 3.41376
                  CHANNELS 3 Zrotation Xrotation Yrotation
                  End Site
                  {
                    OFFSET -1.78271 -1.18214 1.43049
                  }
                }
              }
              JOINT rIndex1
              {
                OFFSET -7.75947 0.938293 5.60832
                CHANNELS 3 Zrotation Xrotation Yrotation
                JOINT rIndex2
                {
                  OFFSET -2.54057 -0.884171 1.56538
                  CHANNELS 3 Zrotation Xrotation Yrotation
                  End Site
                  {
                    OFFSET -1.62519 -0.234802 1.16502
                  }
                }
              }
              JOINT rMid1
              {
                OFFSET -8.24714 1.18213 3.41376
                CHANNELS 3 Zrotation Xrotation Yrotation
                JOINT rMid2
                {
                  OFFSET -3.10165 -0.590103 1.0647
                  CHANNELS 3 Zrotation Xrotation Yrotation
                  End Site
                  {
                    OFFSET -2.48547 -0.328903 0.83742
                  }
                }
              }
              JOINT rRing1
              {
                OFFSET -8.82822 0.546677 1.51678
                CHANNELS 3 Zrotation Xrotation Yrotation
                JOINT rRing2
                {
                  OFFSET -2.60934 -0.819778 -0.0198488
                  CHANNELS 3 Zrotation Xrotation Yrotation
                  End Site
                  {
                    OFFSET -2.33842 -0.294052 0.168128
                  }
                }
              }
              JOINT rPinky1
              {
                OFFSET -8.27202 -0.0477905 -0.4584
                CHANNELS 3 Zrotation Xrotation Yrotation
                JOINT rPinky2
                {
                  OFFSET -1.82734 -0.647385 -0.700984
                  CHANNELS 3 Zrotation Xrotation Yrotation
                  End Site
                  {
                    OFFSET -1.69225 -0.51767 -0.607171
                  }
                }
              }
            }
          }
        }
      }
      JOINT lCollar
      {
        OFFSET 2.68224 19.2634 -4.8768
        CHANNELS 3 Zrotation Xrotation Yrotation
        JOINT lShldr
        {
          OFFSET 8.77824 -1.95073 1.46304
          CHANNELS 3 Zrotation Xrotation Yrotation
          JOINT lForeArm
          {
            OFFSET 28.1742 -1.7115 0.48768
            CHANNELS 3 Zrotation Xrotation Yrotation
            JOINT lHand
            {
              OFFSET 22.5879 0.773209 7.07136
              CHANNELS 3 Zrotation Xrotation Yrotation
              JOINT lThumb1
              {
                OFFSET 1.2192 -0.487915 3.41376
                CHANNELS 3 Zrotation Xrotation Yrotation
                JOINT lThumb2
                {
                  OFFSET 3.37035 -0.52449 3.41376
                  CHANNELS 3 Zrotation Xrotation Yrotation
                  End Site
                  {
                    OFFSET 1.78271 -1.18214 1.43049
                  }
                }
              }
              JOINT lIndex1
              {
                OFFSET 7.75947 0.938293 5.60832
                CHANNELS 3 Zrotation Xrotation Yrotation
                JOINT lIndex2
                {
                  OFFSET 2.54057 -0.884171 1.56538
                  CHANNELS 3 Zrotation Xrotation Yrotation
                  End Site
                  {
                    OFFSET 1.62519 -0.234802 1.16502
                  }
                }
              }
              JOINT lMid1
              {
                OFFSET 8.24714 1.18213 3.41376
                CHANNELS 3 Zrotation Xrotation Yrotation
                JOINT lMid2
                {
                  OFFSET 3.10165 -0.590103 1.0647
                  CHANNELS 3 Zrotation Xrotation Yrotation
                  End Site
                  {
                    OFFSET 2.48547 -0.328903 0.83742
                  }
                }
              }
              JOINT lRing1
              {
                OFFSET 8.82822 0.546677 1.51678
                CHANNELS 3 Zrotation Xrotation Yrotation
                JOINT lRing2
                {
                  OFFSET 2.60934 -0.819778 -0.0198488
                  CHANNELS 3 Zrotation Xrotation Yrotation
                  End Site
                  {
                    OFFSET 2.33842 -0.294052 0.168128
                  }
                }
              }
              JOINT lPinky1
              {
                OFFSET 8.27202 -0.0477905 -0.4584
                CHANNELS 3 Zrotation Xrotation Yrotation
                JOINT lPinky2
                {
                  OFFSET 1.82734 -0.647385 -0.700984
                  CHANNELS 3 Zrotation Xrotation Yrotation
                  End Site
                  {
                    OFFSET 1.69225 -0.51767 -0.607171
                  }
                }
              }
            }
          }
        }
      }
    }
  }
  JOINT rButtock
  {
    OFFSET -8.77824 4.35084 1.2192
    CHANNELS 3 Zrotation Xrotation Yrotation
    JOINT rThigh
    {
      OFFSET 0 -1.70687 -2.19456
      CHANNELS 3 Zrotation Xrotation Yrotation
      JOINT rShin
      {
        OFFSET 0 -36.8199 0.73152
        CHANNELS 3 Zrotation Xrotation Yrotation
        JOINT rFoot
        {
          OFFSET 0.73152 -45.1104 -5.12064
          CHANNELS 3 Zrotation Xrotation Yrotation
          End Site
          {
            OFFSET -1.1221 -3.69964 12.103
          }
        }
      }
    }
  }
  JOINT lButtock
  {
    OFFSET 8.77824 4.35084 1.2192
    CHANNELS 3 Zrotation Xrotation Yrotation
    JOINT lThigh
    {
      OFFSET 0 -1.70687 -2.19456
      CHANNELS 3 Zrotation Xrotation Yrotation
      JOINT lShin
      {
        OFFSET 0 -36.8199 0.73152
        CHANNELS 3 Zrotation Xrotation Yrotation
        JOINT lFoot
        {
          OFFSET -0.73152 -45.1104 -5.12064
          CHANNELS 3 Zrotation Xrotation Yrotation
          End Site
          {
            OFFSET 1.1221 -3.69964 12.103
          }
        }
      }
    }
  }
}
MOTION
Frames:	7
Frame Time:	0.03333
0.0 0.0 0.0 0.0 0.0 0.0 0.0 0.0 0.0 0.0 0.0 0.0 0.0 0.0 0.0 0.0 0.0 0.0 0.0 0.0 0.0 0.0 0.0 0.0 0.0 0.0 0.0 0.0 0.0 0.0 0.0 0.0 0.0 0.0 0.0 0.0 0.0 0.0 0.0 0.0 0.0 0.0 0.0 0.0 0.0 0.0 0.0 0.0 0.0 0.0 0.0 0.0 0.0 0.0 0.0 0.0 0.0 0.0 0.0 0.0 0.0 0.0 0.0 0.0 0.0 0.0 0.0 0.0 0.0 0.0 0.0 0.0 0.0 0.0 0.0 0.0 0.0 0.0 0.0 0.0 0.0 0.0 0.0 0.0 0.0 0.0 0.0 0.0 0.0 0.0 0.0 0.0 0.0 0.0 0.0 0.0 0.0 0.0 0.0 0.0 0.0 0.0 0.0 0.0 0.0 0.0 0.0 0.0 0.0 0.0 0.0 0.0 0.0 0.0 0.0 0.0 0.0 0.0 0.0 0.0 0.0 0.0 0.0 0.0 0.0 0.0 0.0 0.0 0.0 0.0 0.0 0.0
-0.015799999999999998 61.8143 0.6737 -2.603215 5.898242 6.956661 -2.283766 13.751545 2.809496 2.961978 -9.313394 0.80824 -5.746208 14.567506 -5.668392 8.40391 -24.44367 -8.286816 0.019268 -0.000656 0.017292 0.001703 -0.016473 -0.011171 -0.003343 -0.027444 -0.000353 53.278931 36.994436 8.739312 -27.913989 -32.885536 71.769464 0.130245 2.128785 0.599065 0.011207 -0.007943 0.024245 -0.004764 0.009166 -0.022179 -0.009573 -0.004373 0.024974 7.750744 5.500611 0.40755 0.004628 0.014102 -0.005068 2.893182 0.964191 0.082183 0.020032 -0.008866 -0.026197 10.275012 0.721718 0.049597 -0.011699 0.017919 -0.015721 2.245788 -0.754668 -0.222824 0.026482 0.005336 0.001777 -57.653017 40.124782 -23.638026 28.635634 -34.764091 -74.413629 0.635948 -20.301942 2.996026 0.006208 0.013929 0.007048 -0.023233 -0.021531 -0.006048 0.018326 -0.023619 0.014353 -7.738358 5.480573 -0.422267 0.004437 -0.011612 -0.02254 -2.901245 0.956728 -0.106085 -0.024977 -0.025169 -0.010231 -10.303244 0.728485 -0.058724 0.004671 0.008134 0.024227 -2.231383 -0.767566 0.173228 -0.018618 -0.001566 0.009857 -29.846372 -44.213243 -24.436111 -1.612709 66.355384 2.141484 -3.413543 -12.117715 -9.822366 -0.032744 0.005385 0.005388 35.689144 -43.414619 27.943539 2.271747 70.159585 -3.075676 4.721664 -11.62466 14.856162
-0.073 42.7157 0.5779000000000001 -158.176552 77.391665 -156.959012 -1.428663 13.706066 16.860799 -4.884667 -13.213827 4.017683 1.219543 14.610245 13.117361 -1.73164 -20.514333 25.957705 -0.007474 -0.009678 0.005078 0.019194 0.006806 -0.022413 -0.010248 -0.007377 -0.039439 16.551302 68.135546 44.265257 -26.883409 -43.640893 90.773707 -0.234949 9.445234 1.622013 0.052906 0.016182 0.010866 -0.021855 -0.001871 -0.026601 -0.012785 0.011863 -0.005139 7.730175 5.442815 0.415229 0.008582 0.070078 0.002668 2.872952 0.94992 0.057695 0.024577 -0.038923 -0.024797 10.269688 0.692527 0.022772 0.004376 0.007895 -0.012484 2.225511 -0.748086 -0.191266 0.032881 -0.025136 -0.02709 -55.155464 4.477105 -16.303439 26.907856 -44.181979 -91.13076 2.938899 -43.235514 7.450439 0.004582 -9.8e-05 0.030581 -0.009356 0.030256 0.012765 -0.023645 0.018164 0.01069 -7.770762 5.47043 -0.349674 0.013071 0.027847 -0.027853 -2.901585 0.94511 -0.074142 -0.01741 -0.007775 -0.009054 -10.255489 0.671568 -0.031061 -0.024246 -0.007479 -0.022665 -2.169204 -0.712486 0.183648 0.030836 0.008952 -0.011173 -77.076162 -36.572692 -59.605845 -174.547519 79.069459 176.631421 -2.349035 -26.381546 -5.34436 0.0126 0.028705 0.035583 102.760622 -49.339136 81.625074 173.179891 78.611949 -174.051125 -8.485289 -23.072524 -13.57641
-0.3149 39.2225 0.12329999999999999 -155.94123 79.662551 -152.44535 -1.178302 14.094088 16.691659 -5.280623 -13.396093 4.088752 1.189471 14.640952 13.349687 -0.543709 -20.332037 26.189254 0.005134 0.014606 0.010203 0.001825 0.006259 -8.7e-05 0.024486 -0.038913 -0.07162 9.979207 66.351561 52.135033 -27.090274 -43.892062 91.039273 -0.143885 8.772318 1.517473 0.038575 0.031757 0.00111 -0.020228 0.05532 0.013669 -0.06713 -0.022301 0.017732 7.723112 5.517169 0.429599 -0.023825 0.016652 -0.009183 2.919249 0.933471 0.100673 0.021142 -0.090645 0.013009 10.278096 0.70076 0.024219 -0.016872 0.025199 -0.073685 2.217391 -0.756789 -0.201004 0.010615 0.011308 0.02765 -54.007876 5.204161 -18.383514 27.308359 -43.697007 -90.444365 2.816545 -43.09843 7.328879 0.019762 0.021403 0.015049 -0.025432 -0.002039 -0.007288 0.044303 0.018621 0.074724 -7.712919 5.468794 -0.408991 -0.018656 -0.040783 -0.052191 -2.918666 0.964273 -0.144128 -0.038117 0.022346 -0.01499 -10.29259 0.742295 -0.036391 0.0159 0.023622 0.045956 -2.155859 -0.732723 0.187231 -0.003869 0.030911 0.017358 -80.232074 -36.380374 -63.046812 -175.261718 77.010521 177.537146 -2.368743 -25.038483 -6.085945 0.031388 -0.015864 -0.01848 106.524585 -49.931331 85.914003 174.341666 75.616612 -174.733591 -8.84189 -24.124277 -13.677632
-0.5680000000000001 39.9068 -0.0851 -153.391423 78.613342 -155.312222 -1.317922 14.555633 16.287837 -5.294332 -13.382639 3.862752 1.016795 14.722997 12.800658 -0.267505 -20.810985 25.335293 -0.022122 0.019155 0.021239 -0.020669 0.0017 0.00242 0.025724 0.003619 -0.064903 11.218359 65.640376 50.369624 -27.145173 -43.946194 91.210701 -0.048793 7.835705 1.390603 0.059498 0.098037 -0.038643 -0.043285 0.047739 -0.009517 -0.050802 0.02368 0.004759 7.710494 5.50724 0.421363 -0.026776 0.011062 0.002046 2.907912 0.910818 0.127427 0.017358 -0.090812 0.047701 10.201246 0.700006 0.007211 -0.014662 0.001583 -0.021366 2.242388 -0.747404 -0.208151 -0.003794 0.017451 0.016894 -54.648553 5.754141 -18.291865 27.185247 -43.792277 -90.516447 2.525486 -41.459491 6.947794 0.026559 -0.011447 0.039116 -0.006982 0.003707 -0.01461 0.033962 0.048779 0.046142 -7.699479 5.445284 -0.407161 -0.000172 -0.026653 -0.039301 -2.926906 0.961504 -0.167408 -0.019417 0.027349 -0.004777 -10.297167 0.804021 -0.028064 0.00073 0.029565 0.025356 -2.171807 -0.736925 0.196422 -0.024224 0.027088 0.015121 -80.313684 -36.295499 -63.359688 -174.949026 77.573423 177.304439 -2.151178 -24.510412 -5.320254 0.006413 -0.012948 -0.008297 107.186429 -49.862143 85.903693 174.083334 76.05285 -174.473202 -9.049564 -22.87206 -13.57445
-0.7078 40.3597 -0.198 -156.711219 78.083232 -154.431756 -1.269664 14.941438 16.114165 -5.403972 -13.466218 3.71087 1.134528 14.797971 12.682105 -0.583531 -21.546376 25.196872 -0.008761 0.012874 0.030652 -0.025653 0.002844 0.00432 0.019378 0.013026 -0.058026 12.235336 64.882254 48.809652 -27.177074 -43.77212 90.729885 -0.05019 8.020194 1.408024 0.050481 0.11333 -0.057765 -0.029288 0.040492 -0.037773 -0.043075 0.019961 0.006744 7.699731 5.507732 0.42515 -0.000281 -0.00474 0.029569 2.895617 0.906216 0.139044 0.028518 -0.052225 0.039647 10.222483 0.734428 0.017511 -0.013185 -0.001476 0.011442 2.28229 -0.74533 -0.202545 -0.010052 -0.002804 0.020461 -54.698445 5.979298 -18.595194 27.083616 -43.834119 -90.722587 2.604893 -40.981526 6.936981 0.017145 -0.006226 0.029876 0.012652 0.009788 -0.023742 0.036316 0.044669 0.016936 -7.705541 5.445782 -0.399118 0.012652 0.017641 -0.026963 -2.920484 0.955006 -0.141015 0.015055 0.014441 -0.00104 -10.322644 0.794625 -0.019799 -0.011004 -0.001412 -0.012289 -2.20092 -0.738116 0.203409 -0.024055 0.037752 -0.011646 -81.069861 -36.164597 -63.935328 -174.850963 77.71176 177.236682 -1.9446 -23.887679 -4.964037 -0.022201 -0.002674 0.01509 107.771665 -49.9792 86.028381 174.011624 76.659976 -174.38591 -9.985792 -21.989707 -15.184458
-0.6557000000000001 40.1055 -0.3226 -158.286821 77.86188 -153.426266 -0.9742 15.204629 15.960046 -5.442003 -13.551017 3.572169 1.221088 14.749872 12.619638 -0.647651 -22.066135 25.137068 -0.006239 0.004197 0.018909 -0.031349 0.004668 0.001145 0.035834 0.020408 -0.056849 11.936274 64.611325 48.810092 -27.102829 -43.736672 90.560547 -0.099281 8.628291 1.479884 0.015383 0.088417 -0.090483 0.004351 0.025485 -0.051061 -0.00243 0.042109 0.008346 7.696293 5.500858 0.431012 0.035183 0.001291 0.037643 2.887498 0.943086 0.131007 0.018408 -0.017227 0.043772 10.252065 0.755573 0.001847 -0.012391 0.017435 0.021818 2.304881 -0.752039 -0.181482 -0.001109 -0.0398 0.030496 -55.034266 6.354451 -18.969942 27.039004 -43.764109 -90.71767 2.779636 -41.111632 7.070027 0.027462 0.006639 0.010616 0.002959 0.002465 -0.016009 0.015837 0.03267 0.013204 -7.714733 5.466259 -0.399389 0.012773 0.059711 -0.001803 -2.893011 0.936113 -0.094407 0.057675 -0.005318 -0.000533 -10.366149 0.720542 -0.010247 -0.018888 0.007075 -0.06064 -2.192728 -0.740678 0.205625 -0.018341 0.045129 -0.04496 -81.789337 -35.764559 -64.307106 -175.115183 77.579382 177.57983 -1.77086 -23.64908 -4.962347 -0.007522 0.006847 0.017569 109.890802 -49.826236 88.001195 174.203319 76.035467 -174.536606 -10.731984 -21.820228 -16.40417
